<?xml version="1.0" encoding="UTF-8"?>
<svg xmlns="http://www.w3.org/2000/svg" xmlns:xlink="http://www.w3.org/1999/xlink" viewBox="0 0 144 144" width="144px" height="144px">
<g id="surface181750898">
<path style=" stroke:none;fill-rule:nonzero;fill:rgb(1.960784%,1.568628%,31.37255%);fill-opacity:1;" d="M 72 18 C 54.648438 18 39.617188 27.828125 32.109375 42.210938 C 14.054688 44.15625 0 59.4375 0 78 C 0 97.882812 16.117188 114 36 114 L 39.574219 114 L 43.582031 108 L 44.015625 107.34375 L 71.578125 66 L 90 66 L 90 90 L 118.417969 90 L 110.425781 102 L 106.417969 108 L 105.984375 108.65625 L 102.421875 114 L 114 114 C 130.566406 114 144 100.566406 144 84 C 144 68.160156 131.691406 55.320312 116.132812 54.210938 C 112.046875 33.566406 93.847656 18 72 18 Z M 78 78 L 54 114 L 72 114 L 72 138 L 96 102 L 78 102 Z M 78 78 "/>
</g>
</svg>
